# xmcd CD database file
# Copyright (C) 1993-1996 Ti Kan
#
# Track frame offsets:
# 150
# 9785
# 21752
# 31962
# 52125
# 63995
# 75600
# 90367
# 102137
# 112480
#
# Disc length: 1637 seconds
#
# Revision: 0
# Processed by: cddbd v1.4b41PL1 Copyright (c) Steve Scherf et al.
# Submitted via: inCDius 1.1b5
#
DISCID=7306630a
DTITLE=Skeeter Davis - Skeeter Davis
DYEAR=1900
DGENRE=
TTITLE0=Am I That Easy To Forget
TTITLE1=I Forgot More Than You'll Ever Know
TTITLE2=Set Him Free
TTITLE3=Bridge Over Troubled Water
TTITLE4=The End Of The World
TTITLE5=My Last Date (With You)
TTITLE6=One Tin Soldier
TTITLE7=What Does It Take (To Keep A Man Like You Satisfied
TTITLE8=I'm A Lover (Not A Fighter)
TTITLE9=There's A Fool Born Every Minute
EXTD=
EXTT0=
EXTT1=
EXTT2=
EXTT3=
EXTT4=
EXTT5=
EXTT6=
EXTT7=
EXTT8=
EXTT9=
PLAYORDER=
